<svg width="34" height="38" viewBox="0 0 34 38" fill="none" xmlns="http://www.w3.org/2000/svg">
<path d="M3.33333 34C2.41667 34 1.63222 33.6738 0.98 33.0216C0.327778 32.3694 0.00111111 31.5844 0 30.6666V7.33329C0 6.41663 0.326667 5.63218 0.98 4.97996C1.63333 4.32774 2.41778 4.00107 3.33333 3.99996H10.3333C10.6944 2.99996 11.2989 2.1944 12.1467 1.58329C12.9944 0.972181 13.9456 0.666626 15 0.666626C16.0544 0.666626 17.0061 0.972181 17.855 1.58329C18.7039 2.1944 19.3078 2.99996 19.6667 3.99996H26.6667C27.5833 3.99996 28.3683 4.32663 29.0217 4.97996C29.675 5.63329 30.0011 6.41774 30 7.33329V15.7083C30 16.1805 29.84 16.5766 29.52 16.8966C29.2 17.2166 28.8044 17.3761 28.3333 17.375C27.8622 17.3738 27.4667 17.2138 27.1467 16.895C26.8267 16.5761 26.6667 16.1805 26.6667 15.7083V7.33329H3.33333V30.6666H11.6667C12.1389 30.6666 12.535 30.8266 12.855 31.1466C13.175 31.4666 13.3344 31.8622 13.3333 32.3333C13.3322 32.8044 13.1722 33.2005 12.8533 33.5216C12.5344 33.8427 12.1389 34.0022 11.6667 34H3.33333ZM3.33333 29V30.6666V7.33329V17.4583V17.3333V29ZM8.33333 27.3333H12.5C12.9722 27.3333 13.3683 27.1733 13.6883 26.8533C14.0083 26.5333 14.1678 26.1377 14.1667 25.6666C14.1656 25.1955 14.0056 24.8 13.6867 24.48C13.3678 24.16 12.9722 24 12.5 24H8.33333C7.86111 24 7.46556 24.16 7.14667 24.48C6.82778 24.8 6.66778 25.1955 6.66667 25.6666C6.66556 26.1377 6.82556 26.5338 7.14667 26.855C7.46778 27.1761 7.86333 27.3355 8.33333 27.3333ZM8.33333 20.6666H16.6667C17.1389 20.6666 17.535 20.5066 17.855 20.1866C18.175 19.8666 18.3344 19.4711 18.3333 19C18.3322 18.5288 18.1722 18.1333 17.8533 17.8133C17.5344 17.4933 17.1389 17.3333 16.6667 17.3333H8.33333C7.86111 17.3333 7.46556 17.4933 7.14667 17.8133C6.82778 18.1333 6.66778 18.5288 6.66667 19C6.66556 19.4711 6.82556 19.8672 7.14667 20.1883C7.46778 20.5094 7.86333 20.6688 8.33333 20.6666ZM8.33333 14H21.6667C22.1389 14 22.535 13.84 22.855 13.52C23.175 13.2 23.3344 12.8044 23.3333 12.3333C23.3322 11.8622 23.1722 11.4666 22.8533 11.1466C22.5344 10.8266 22.1389 10.6666 21.6667 10.6666H8.33333C7.86111 10.6666 7.46556 10.8266 7.14667 11.1466C6.82778 11.4666 6.66778 11.8622 6.66667 12.3333C6.66556 12.8044 6.82556 13.2005 7.14667 13.5216C7.46778 13.8427 7.86333 14.0022 8.33333 14ZM15 6.08329C15.3611 6.08329 15.66 5.96496 15.8967 5.72829C16.1333 5.49163 16.2511 5.19329 16.25 4.83329C16.2489 4.47329 16.1306 4.17496 15.895 3.93829C15.6594 3.70163 15.3611 3.58329 15 3.58329C14.6389 3.58329 14.3406 3.70163 14.105 3.93829C13.8694 4.17496 13.7511 4.47329 13.75 4.83329C13.7489 5.19329 13.8672 5.49218 14.105 5.72996C14.3428 5.96774 14.6411 6.08551 15 6.08329ZM25 37.3333C22.6944 37.3333 20.7294 36.5205 19.105 34.895C17.4806 33.2694 16.6678 31.3044 16.6667 29C16.6656 26.6955 17.4783 24.7305 19.105 23.105C20.7317 21.4794 22.6967 20.6666 25 20.6666C27.3033 20.6666 29.2689 21.4794 30.8967 23.105C32.5244 24.7305 33.3367 26.6955 33.3333 29C33.33 31.3044 32.5172 33.27 30.895 34.8966C29.2728 36.5233 27.3078 37.3355 25 37.3333ZM24.1667 29.8333V33.1666C24.1667 33.3888 24.25 33.5833 24.4167 33.75C24.5833 33.9166 24.7778 34 25 34C25.2222 34 25.4167 33.9166 25.5833 33.75C25.75 33.5833 25.8333 33.3888 25.8333 33.1666V29.8333H29.1667C29.3889 29.8333 29.5833 29.75 29.75 29.5833C29.9167 29.4166 30 29.2222 30 29C30 28.7777 29.9167 28.5833 29.75 28.4166C29.5833 28.25 29.3889 28.1666 29.1667 28.1666H25.8333V24.8333C25.8333 24.6111 25.75 24.4166 25.5833 24.25C25.4167 24.0833 25.2222 24 25 24C24.7778 24 24.5833 24.0833 24.4167 24.25C24.25 24.4166 24.1667 24.6111 24.1667 24.8333V28.1666H20.8333C20.6111 28.1666 20.4167 28.25 20.25 28.4166C20.0833 28.5833 20 28.7777 20 29C20 29.2222 20.0833 29.4166 20.25 29.5833C20.4167 29.75 20.6111 29.8333 20.8333 29.8333H24.1667Z" fill="#5D9CFB"/>
</svg>
