<svg width="40" height="40" viewBox="0 0 40 40" fill="none" xmlns="http://www.w3.org/2000/svg">
<rect width="40" height="40" rx="8" fill="#FFF6CF"/>
<path d="M8.75 11.5C8.75 10.3264 9.72895 9.375 10.9365 9.375H20.9636C21.5434 9.375 22.0996 9.59888 22.5097 9.9974L26.3307 13.7109C26.7408 14.1095 26.9711 14.65 26.9711 15.2135V28.5C26.9711 29.6736 25.9922 30.625 24.7846 30.625H10.9365C9.72895 30.625 8.75 29.6736 8.75 28.5V11.5Z" fill="#FFE57E"/>
<path d="M18.9538 12.9167H12.3942C11.9917 12.9167 11.6654 13.2338 11.6654 13.625C11.6654 14.0162 11.9917 14.3333 12.3942 14.3333H18.9538C19.3564 14.3333 19.6827 14.0162 19.6827 13.625C19.6827 13.2338 19.3564 12.9167 18.9538 12.9167Z" fill="#FFD00E"/>
<path d="M16.7673 15.75H12.3942C11.9917 15.75 11.6654 16.0671 11.6654 16.4583C11.6654 16.8495 11.9917 17.1667 12.3942 17.1667H16.7673C17.1698 17.1667 17.4961 16.8495 17.4961 16.4583C17.4961 16.0671 17.1698 15.75 16.7673 15.75Z" fill="#FFD00E"/>
<path d="M19.8821 21.5809L21.4412 18.1175C21.6469 17.6604 22.2613 17.5478 22.6243 17.9005L24.7584 19.9745C25.1213 20.3272 25.0054 20.9244 24.5351 21.1243L20.9714 22.6395C20.6965 22.7564 20.376 22.6977 20.1639 22.4915L20.0344 22.3657C19.8223 22.1595 19.7618 21.848 19.8821 21.5809Z" fill="#EABC00"/>
<path d="M28.6423 10.5842L21.2913 17.7283C21.0067 18.0049 21.0067 18.4534 21.2913 18.73L23.9048 21.27C24.1894 21.5466 24.6509 21.5466 24.9355 21.27L32.2865 14.1259C32.5712 13.8492 32.5712 13.4008 32.2865 13.1241L29.673 10.5842C29.3884 10.3076 28.9269 10.3076 28.6423 10.5842Z" fill="#FFD00E"/>
<path d="M18.6148 22.5038C18.8995 22.7805 18.8995 23.2289 18.6148 23.5056L15.5336 26.5C15.5302 26.5035 15.5271 26.5073 15.5236 26.5108C15.4433 26.5888 15.3483 26.6441 15.2478 26.6781C15.1169 26.7224 14.9763 26.7289 14.8421 26.6986C14.817 26.6929 14.7921 26.6864 14.7676 26.6781C14.6671 26.6441 14.5722 26.5888 14.4918 26.5108C14.4883 26.5073 14.4852 26.5035 14.4818 26.5L12.4314 24.5073C12.1467 24.2307 12.1467 23.7822 12.4314 23.5056C12.716 23.2292 13.1775 23.229 13.4621 23.5056L15.0077 25.0077L17.584 22.5038C17.8687 22.2273 18.3302 22.2274 18.6148 22.5038Z" fill="#EABC00"/>
</svg>
