<svg width="40" height="40" viewBox="0 0 40 40" fill="none" xmlns="http://www.w3.org/2000/svg">
<rect width="40" height="40" rx="8" fill="#DAF7F1"/>
<path d="M26.6166 11.0625H11.2C9.92279 11.0625 8.88745 12.0978 8.88745 13.375V27.25C8.88745 28.5272 9.92279 29.5625 11.2 29.5625H26.6166C27.8938 29.5625 28.9291 28.5272 28.9291 27.25V13.375C28.9291 12.0978 27.8938 11.0625 26.6166 11.0625Z" fill="#A0EADC"/>
<path d="M8.88745 13.375C8.88745 12.0978 9.92279 11.0625 11.2 11.0625H26.6166C27.8938 11.0625 28.9291 12.0978 28.9291 13.375V15.6875H8.88745V13.375Z" fill="#3DC3A9"/>
<path d="M14.2833 9.52083C14.2833 9.09511 13.9382 8.75 13.5125 8.75C13.0867 8.75 12.7416 9.09511 12.7416 9.52083V12.6042C12.7416 13.0299 13.0867 13.375 13.5125 13.375C13.9382 13.375 14.2833 13.0299 14.2833 12.6042V9.52083Z" fill="#A0EADC"/>
<path d="M14.2833 18H12.7416C12.3159 18 11.9708 18.3451 11.9708 18.7708V20.3125C11.9708 20.7382 12.3159 21.0833 12.7416 21.0833H14.2833C14.709 21.0833 15.0541 20.7382 15.0541 20.3125V18.7708C15.0541 18.3451 14.709 18 14.2833 18Z" fill="#DAF7F1"/>
<path d="M14.2833 23.3958H12.7416C12.3159 23.3958 11.9708 23.7409 11.9708 24.1667V25.7083C11.9708 26.1341 12.3159 26.4792 12.7416 26.4792H14.2833C14.709 26.4792 15.0541 26.1341 15.0541 25.7083V24.1667C15.0541 23.7409 14.709 23.3958 14.2833 23.3958Z" fill="#DAF7F1"/>
<path d="M19.6791 18H18.1375C17.7117 18 17.3666 18.3451 17.3666 18.7708V20.3125C17.3666 20.7382 17.7117 21.0833 18.1375 21.0833H19.6791C20.1048 21.0833 20.45 20.7382 20.45 20.3125V18.7708C20.45 18.3451 20.1048 18 19.6791 18Z" fill="#DAF7F1"/>
<path d="M19.6791 23.3958H18.1375C17.7117 23.3958 17.3666 23.7409 17.3666 24.1667V25.7083C17.3666 26.1341 17.7117 26.4792 18.1375 26.4792H19.6791C20.1048 26.4792 20.45 26.1341 20.45 25.7083V24.1667C20.45 23.7409 20.1048 23.3958 19.6791 23.3958Z" fill="#DAF7F1"/>
<path d="M25.075 18H23.5333C23.1076 18 22.7625 18.3451 22.7625 18.7708V20.3125C22.7625 20.7382 23.1076 21.0833 23.5333 21.0833H25.075C25.5007 21.0833 25.8458 20.7382 25.8458 20.3125V19.5417V18.7708C25.8458 18.3451 25.5007 18 25.075 18Z" fill="#DAF7F1"/>
<path d="M25.075 23.3958H23.5333C23.1076 23.3958 22.7625 23.7409 22.7625 24.1667V25.7083C22.7625 26.1341 23.1076 26.4792 23.5333 26.4792H25.075C25.5007 26.4792 25.8458 26.1341 25.8458 25.7083V24.1667C25.8458 23.7409 25.5007 23.3958 25.075 23.3958Z" fill="#DAF7F1"/>
<path d="M24.3041 9.52083C24.3041 9.09511 23.959 8.75 23.5333 8.75C23.1076 8.75 22.7625 9.09511 22.7625 9.52083V12.6042C22.7625 13.0299 23.1076 13.375 23.5333 13.375C23.959 13.375 24.3041 13.0299 24.3041 12.6042V9.52083Z" fill="#A0EADC"/>
<path d="M25.8458 31.875C29.2515 31.875 32.0125 29.1141 32.0125 25.7083C32.0125 22.3026 29.2515 19.5417 25.8458 19.5417C22.44 19.5417 19.6791 22.3026 19.6791 25.7083C19.6791 29.1141 22.44 31.875 25.8458 31.875Z" fill="#3DC3A9"/>
<path d="M25.075 22.2396C25.075 22.0268 25.2475 21.8542 25.4604 21.8542C25.6732 21.8542 25.8458 22.0268 25.8458 22.2396V25.5149L28.7748 27.7122L28.8328 27.7656C28.9514 27.8997 28.9638 28.1031 28.8523 28.2519C28.7407 28.4009 28.5416 28.4459 28.3796 28.3693L28.3126 28.3295L25.2293 26.017C25.1322 25.9442 25.075 25.8297 25.075 25.7083V22.2396Z" fill="#A0EADC"/>
</svg>
