<svg width="15" height="14" viewBox="0 0 15 14" fill="none" xmlns="http://www.w3.org/2000/svg">
<path d="M7.4999 13.6669C6.66657 13.6669 5.88612 13.5087 5.15857 13.1922C4.43101 12.8758 3.79768 12.448 3.25857 11.9089C2.71946 11.3698 2.29168 10.7364 1.97524 10.0089C1.65879 9.28134 1.50035 8.50067 1.4999 7.66689C1.49946 6.83312 1.6579 6.05267 1.97524 5.32556C2.29257 4.59845 2.72012 3.96512 3.2579 3.42556C3.79568 2.88601 4.42901 2.45823 5.1579 2.14223C5.88679 1.82623 6.66746 1.66778 7.4999 1.66689C8.33235 1.66601 9.11301 1.82445 9.8419 2.14223C10.5708 2.46001 11.2041 2.88778 11.7419 3.42556C12.2797 3.96334 12.7075 4.59667 13.0252 5.32556C13.343 6.05445 13.5012 6.83489 13.4999 7.66689C13.4986 8.49889 13.3403 9.27956 13.0252 10.0089C12.7101 10.7382 12.2823 11.3716 11.7419 11.9089C11.2015 12.4462 10.5681 12.874 9.8419 13.1922C9.11568 13.5104 8.33501 13.6687 7.4999 13.6669ZM9.36657 10.4669L10.2999 9.53356L8.16657 7.40023V4.33356H6.83324V7.93356L9.36657 10.4669ZM3.23324 0.566895L4.16657 1.50023L1.33324 4.33356L0.399902 3.40023L3.23324 0.566895ZM11.7666 0.566895L14.5999 3.40023L13.6666 4.33356L10.8332 1.50023L11.7666 0.566895Z" fill="#3483FA"/>
</svg>
