<svg width="16" height="16" viewBox="0 0 16 16" fill="none" xmlns="http://www.w3.org/2000/svg">
<path d="M3.82484 9L8.72484 13.9C8.92484 14.1 9.02084 14.3333 9.01284 14.6C9.00484 14.8667 8.90051 15.1 8.69984 15.3C8.49984 15.4833 8.26651 15.5793 7.99984 15.588C7.73318 15.5967 7.49984 15.5007 7.29984 15.3L0.699842 8.7C0.599842 8.6 0.528843 8.49167 0.486843 8.375C0.444843 8.25834 0.424509 8.13334 0.425843 8C0.427176 7.86667 0.448176 7.74167 0.488843 7.625C0.529509 7.50834 0.600176 7.4 0.700843 7.3L7.30084 0.700003C7.48418 0.516669 7.71351 0.425003 7.98884 0.425003C8.26418 0.425003 8.50151 0.516669 8.70084 0.700003C8.90084 0.900003 9.00084 1.13767 9.00084 1.413C9.00084 1.68834 8.90084 1.92567 8.70084 2.125L3.82484 7H14.9998C15.2832 7 15.5208 7.096 15.7128 7.288C15.9048 7.48 16.0005 7.71734 15.9998 8C15.9992 8.28267 15.9032 8.52034 15.7118 8.713C15.5205 8.90567 15.2832 9.00134 14.9998 9H3.82484Z" fill="#94A2B3"/>
</svg>
