<svg width="16" height="20" viewBox="0 0 16 20" fill="none" xmlns="http://www.w3.org/2000/svg">
<path d="M2 20C1.45 20 0.979333 19.8043 0.588 19.413C0.196666 19.0217 0.000666667 18.5507 0 18V6.825C0 6.55833 0.0500001 6.30433 0.15 6.063C0.25 5.82167 0.391666 5.609 0.575 5.425L5.425 0.575C5.60833 0.391667 5.821 0.25 6.063 0.15C6.305 0.0500001 6.559 0 6.825 0H14C14.55 0 15.021 0.196 15.413 0.588C15.805 0.98 16.0007 1.45067 16 2V18C16 18.55 15.8043 19.021 15.413 19.413C15.0217 19.805 14.5507 20.0007 14 20H2ZM8 15C8.28333 15 8.521 14.904 8.713 14.712C8.905 14.52 9.00067 14.2827 9 14C8.99933 13.7173 8.90333 13.48 8.712 13.288C8.52067 13.096 8.28333 13 8 13C7.71667 13 7.47933 13.096 7.288 13.288C7.09667 13.48 7.00067 13.7173 7 14C6.99933 14.2827 7.09533 14.5203 7.288 14.713C7.48067 14.9057 7.718 15.0013 8 15ZM8 11C8.28333 11 8.521 10.904 8.713 10.712C8.905 10.52 9.00067 10.2827 9 10V7C9 6.71667 8.904 6.47933 8.712 6.288C8.52 6.09667 8.28267 6.00067 8 6C7.71733 5.99933 7.48 6.09533 7.288 6.288C7.096 6.48067 7 6.718 7 7V10C7 10.2833 7.096 10.521 7.288 10.713C7.48 10.905 7.71733 11.0007 8 11Z" fill="#F63737"/>
</svg>
