<svg width="18" height="17" viewBox="0 0 18 17" fill="none" xmlns="http://www.w3.org/2000/svg">
<path d="M9.00033 4.83335C9.23644 4.83335 9.43449 4.75335 9.59449 4.59335C9.75449 4.43335 9.83422 4.23558 9.83366 4.00002C9.83311 3.76446 9.7531 3.56669 9.59366 3.40669C9.43422 3.24669 9.23644 3.16669 9.00033 3.16669C8.76422 3.16669 8.56644 3.24669 8.40699 3.40669C8.24755 3.56669 8.16755 3.76446 8.16699 4.00002C8.16644 4.23558 8.24644 4.43363 8.40699 4.59419C8.56755 4.75474 8.76533 4.83446 9.00033 4.83335ZM9.00033 11.5C9.23644 11.5 9.43449 11.42 9.59449 11.26C9.75449 11.1 9.83422 10.9022 9.83366 10.6667V7.33335C9.83366 7.09724 9.75366 6.89946 9.59366 6.74002C9.43366 6.58058 9.23588 6.50058 9.00033 6.50002C8.76477 6.49946 8.56699 6.57946 8.40699 6.74002C8.24699 6.90058 8.16699 7.09835 8.16699 7.33335V10.6667C8.16699 10.9028 8.24699 11.1009 8.40699 11.2609C8.56699 11.4209 8.76477 11.5006 9.00033 11.5ZM4.00033 14L2.08366 15.9167C1.81977 16.1806 1.51755 16.2397 1.17699 16.0942C0.836438 15.9486 0.666438 15.6881 0.666994 15.3125V2.33335C0.666994 1.87502 0.830327 1.4828 1.15699 1.15669C1.48366 0.830576 1.87588 0.667243 2.33366 0.666687H15.667C16.1253 0.666687 16.5178 0.83002 16.8445 1.15669C17.1712 1.48335 17.3342 1.87558 17.3337 2.33335V12.3334C17.3337 12.7917 17.1706 13.1842 16.8445 13.5109C16.5184 13.8375 16.1259 14.0006 15.667 14H4.00033Z" fill="#0BB745"/>
</svg>
