<svg width="22" height="6" viewBox="0 0 22 6" fill="none" xmlns="http://www.w3.org/2000/svg">
<path d="M2.99992 5.66684C2.26659 5.66684 1.63903 5.40595 1.11725 4.88417C0.595476 4.36239 0.334143 3.73439 0.333254 3.00017C0.332365 2.26595 0.593698 1.63839 1.11725 1.11751C1.64081 0.596617 2.26837 0.335283 2.99992 0.333505C3.73148 0.331727 4.35948 0.593061 4.88392 1.11751C5.40837 1.64195 5.66925 2.2695 5.66659 3.00017C5.66392 3.73084 5.40303 4.35884 4.88392 4.88417C4.36481 5.4095 3.73681 5.67039 2.99992 5.66684ZM10.9999 5.66684C10.2666 5.66684 9.63903 5.40595 9.11725 4.88417C8.59548 4.36239 8.33414 3.73439 8.33325 3.00017C8.33237 2.26595 8.5937 1.63839 9.11725 1.11751C9.64081 0.596617 10.2684 0.335283 10.9999 0.333505C11.7315 0.331727 12.3595 0.593061 12.8839 1.11751C13.4084 1.64195 13.6693 2.2695 13.6666 3.00017C13.6639 3.73084 13.403 4.35884 12.8839 4.88417C12.3648 5.4095 11.7368 5.67039 10.9999 5.66684ZM18.9999 5.66684C18.2666 5.66684 17.639 5.40595 17.1173 4.88417C16.5955 4.36239 16.3341 3.73439 16.3333 3.00017C16.3324 2.26595 16.5937 1.63839 17.1173 1.11751C17.6408 0.596617 18.2684 0.335283 18.9999 0.333505C19.7315 0.331727 20.3595 0.593061 20.8839 1.11751C21.4084 1.64195 21.6693 2.2695 21.6666 3.00017C21.6639 3.73084 21.403 4.35884 20.8839 4.88417C20.3648 5.4095 19.7368 5.67039 18.9999 5.66684Z" fill="#94A2B3"/>
</svg>
