<svg width="22" height="22" viewBox="0 0 22 22" fill="none" xmlns="http://www.w3.org/2000/svg">
<path d="M9.66655 5.43326L3.13322 11.9666C2.86655 12.2333 2.55544 12.3613 2.19989 12.3506C1.84433 12.3399 1.53322 12.2008 1.26655 11.9333C1.02211 11.6666 0.894109 11.3555 0.882554 10.9999C0.870998 10.6444 0.998998 10.3333 1.26655 10.0666L10.0666 1.26659C10.1999 1.13326 10.3443 1.03903 10.4999 0.983922C10.6554 0.928811 10.8221 0.900812 10.9999 0.899923C11.1777 0.899034 11.3443 0.927034 11.4999 0.983922C11.6554 1.04081 11.7999 1.13503 11.9332 1.26659L20.7332 10.0666C20.9777 10.311 21.0999 10.6168 21.0999 10.9839C21.0999 11.351 20.9777 11.6675 20.7332 11.9333C20.4666 12.1999 20.1501 12.3333 19.7839 12.3333C19.4177 12.3333 19.1008 12.1999 18.8332 11.9333L12.3332 5.43326V20.3333C12.3332 20.711 12.2052 21.0279 11.9492 21.2839C11.6932 21.5399 11.3768 21.6675 10.9999 21.6666C10.623 21.6657 10.3066 21.5377 10.0506 21.2826C9.79455 21.0275 9.66655 20.711 9.66655 20.3333V5.43326Z" fill="white"/>
</svg>
