<svg width="14" height="12" viewBox="0 0 14 12" fill="none" xmlns="http://www.w3.org/2000/svg">
<path d="M1.66671 11.3334C1.30004 11.3334 0.986263 11.203 0.725374 10.9421C0.464485 10.6812 0.333818 10.3672 0.333374 10.0001V2.00008C0.333374 1.63341 0.464041 1.31964 0.725374 1.05875C0.986707 0.797859 1.30049 0.667192 1.66671 0.666748H12.3334C12.7 0.666748 13.014 0.797415 13.2754 1.05875C13.5367 1.32008 13.6672 1.63386 13.6667 2.00008V10.0001C13.6667 10.3667 13.5363 10.6807 13.2754 10.9421C13.0145 11.2034 12.7005 11.3339 12.3334 11.3334H1.66671ZM7.00004 6.55008C7.0556 6.55008 7.11404 6.54164 7.17537 6.52475C7.23671 6.50786 7.29493 6.48297 7.35004 6.45008L12.0667 3.50008C12.1556 3.44453 12.2223 3.37519 12.2667 3.29208C12.3112 3.20897 12.3334 3.11719 12.3334 3.01675C12.3334 2.79453 12.2389 2.62786 12.05 2.51675C11.8612 2.40564 11.6667 2.41119 11.4667 2.53341L7.00004 5.33342L2.53337 2.53341C2.33337 2.41119 2.13893 2.40853 1.95004 2.52541C1.76115 2.6423 1.66671 2.80608 1.66671 3.01675C1.66671 3.12786 1.68893 3.22519 1.73337 3.30875C1.77782 3.3923 1.84449 3.45608 1.93337 3.50008L6.65004 6.45008C6.7056 6.48342 6.76404 6.50853 6.82537 6.52541C6.88671 6.5423 6.94493 6.55053 7.00004 6.55008Z" fill="#C8D3DF"/>
</svg>
