<svg width="129" height="26" viewBox="0 0 129 26" fill="none" xmlns="http://www.w3.org/2000/svg">
<path d="M43.7254 8.17604V3.55654C43.7254 3.4322 43.8178 3.33337 43.9275 3.33337H62.1291C62.2417 3.33337 62.3312 3.4322 62.3312 3.55654V8.17604C62.3312 8.30037 62.2417 8.3992 62.1291 8.3992H57.1926C57.0483 8.3992 56.953 8.5586 57.005 8.70844C57.6199 10.4619 59.225 10.9433 62.0887 10.9688C62.2215 10.9688 62.3283 11.0867 62.3283 11.2302C62.3283 12.0208 62.3283 14.3736 62.3283 15.0941C62.3283 15.2121 62.2388 15.3077 62.132 15.3077C56.9212 15.2982 54.4963 14.8391 51.3669 12.7573C51.2399 12.6712 51.0811 12.6648 50.9483 12.7381L50.9397 12.7445C50.651 12.9071 50.625 13.3471 50.8877 13.5543C51.2774 13.8635 51.7769 14.1568 52.1752 14.3768C52.3715 14.4852 52.3485 14.7976 52.1406 14.871C49.9379 15.6584 46.2399 15.5436 43.8986 15.2886C43.7889 15.2758 43.6965 15.1866 43.6965 15.0654L43.7225 11.1919C43.7225 11.0708 43.8149 10.972 43.9246 10.9688C46.7018 10.9433 48.2895 10.3886 48.9477 8.71163C49.0055 8.56498 48.9102 8.3992 48.7659 8.3992C47.8045 8.3992 44.7387 8.3992 43.9246 8.3992C43.812 8.3992 43.7254 8.30037 43.7254 8.17604ZM62.132 22.8889H43.9275C43.8149 22.8889 43.7254 22.7901 43.7254 22.6658V18.0622C43.7254 17.9379 43.8149 17.839 43.9275 17.839H50.5297C50.6423 17.839 50.7318 17.7402 50.7318 17.6159V16.0569C50.7318 15.9326 50.8213 15.8338 50.9339 15.8338H55.1025C55.2151 15.8338 55.3046 15.9326 55.3046 16.0569V17.6159C55.3046 17.7402 55.3941 17.839 55.5067 17.839H62.1349C62.2475 17.839 62.337 17.9379 62.337 18.0622V22.6658C62.337 22.7901 62.2475 22.8889 62.1349 22.8889H62.132Z" fill="#3483FA"/>
<path d="M65.0029 13.7662V9.83596C65.0029 9.68614 65.1134 9.56501 65.25 9.57139C66.561 9.61283 68.5289 9.70527 69.7556 9.33551C69.7963 9.32276 70.2585 9.18888 70.3282 8.85101C70.4707 8.15293 70.3515 7.76724 70.0404 7.82462C68.4533 8.11787 66.8662 8.07962 65.4767 8.05731C65.2122 8.05412 65.0029 7.81505 65.0029 7.52818C65.0029 6.52729 65.0029 4.35339 65.0029 3.59794C65.0029 3.45131 65.1105 3.33337 65.2442 3.33337H75.8279C75.9617 3.33337 76.0692 3.45131 76.0692 3.59794V6.40935C76.0692 13.0809 73.5519 14.477 65.2325 14.0308C65.1046 14.0244 65 13.9064 65 13.763L65.0029 13.7662ZM65.0029 19.7396V15.2388C65.0029 15.0922 65.1105 14.9743 65.2442 14.9743H82.6096C82.7433 14.9743 82.8509 15.0922 82.8509 15.2388V22.6244C82.8509 22.771 82.7433 22.8889 82.6096 22.8889H78.197C78.0633 22.8889 77.9557 22.771 77.9557 22.6244V20.272C77.9557 20.1253 77.8482 20.0074 77.7145 20.0074H65.2471C65.1134 20.0074 65.0058 19.8895 65.0058 19.7428L65.0029 19.7396ZM82.6096 13.9734H78.4877C78.354 13.9734 78.2464 13.8554 78.2464 13.7088V3.60113C78.2464 3.4545 78.354 3.33656 78.4877 3.33656H82.6096C82.7433 3.33656 82.8509 3.4545 82.8509 3.60113V5.64434C82.8509 5.79097 82.9584 5.90891 83.0921 5.90891H84.2868C84.4205 5.90891 84.5281 6.02685 84.5281 6.17347V10.687C84.5281 10.8337 84.4205 10.9516 84.2868 10.9516H83.0921C82.9584 10.9516 82.8509 11.0695 82.8509 11.2162V13.6993C82.8509 13.8459 82.7433 13.9638 82.6096 13.9638V13.9734Z" fill="#3483FA"/>
<path d="M87.2198 8.17604V3.55654C87.2198 3.4322 87.3093 3.33337 87.4219 3.33337H105.624C105.736 3.33337 105.826 3.4322 105.826 3.55654V8.17604C105.826 8.30037 105.736 8.3992 105.624 8.3992H100.687C100.543 8.3992 100.447 8.5586 100.499 8.70844C101.114 10.4619 102.719 10.9433 105.583 10.9688C105.716 10.9688 105.823 11.0867 105.823 11.2302C105.823 12.0208 105.823 14.3736 105.823 15.0941C105.823 15.2121 105.733 15.3077 105.626 15.3077C100.416 15.2982 97.9907 14.8391 94.8613 12.7573C94.7343 12.6712 94.5755 12.6648 94.4427 12.7381L94.434 12.7445C94.1454 12.9071 94.1194 13.3471 94.3821 13.5543C94.7718 13.8635 95.2712 14.1568 95.6696 14.3768C95.8659 14.4852 95.8428 14.7976 95.635 14.871C93.4323 15.6584 89.7342 15.5436 87.393 15.2886C87.2833 15.2758 87.1909 15.1866 87.1909 15.0654L87.2169 11.1919C87.2169 11.0708 87.3093 10.972 87.419 10.9688C90.1961 10.9433 91.7839 10.3886 92.4421 8.71163C92.4998 8.56498 92.4046 8.3992 92.2602 8.3992C91.2989 8.3992 88.2331 8.3992 87.419 8.3992C87.3064 8.3992 87.2198 8.30037 87.2198 8.17604ZM105.624 22.8889H87.4219C87.3093 22.8889 87.2198 22.7901 87.2198 22.6658V18.0622C87.2198 17.9379 87.3093 17.839 87.4219 17.839H94.0241C94.1367 17.839 94.2262 17.7402 94.2262 17.6159V16.0569C94.2262 15.9326 94.3157 15.8338 94.4283 15.8338H98.5969C98.7095 15.8338 98.799 15.9326 98.799 16.0569V17.6159C98.799 17.7402 98.8885 17.839 99.0011 17.839H105.629C105.742 17.839 105.831 17.9379 105.831 18.0622V22.6658C105.831 22.7901 105.742 22.8889 105.629 22.8889H105.624Z" fill="#3483FA"/>
<path d="M108.494 13.7647V9.83383C108.494 9.68399 108.605 9.56284 108.741 9.56922C110.053 9.61066 112.021 9.70312 113.248 9.3333C113.288 9.32055 113.751 9.18665 113.82 8.84872C113.963 8.15053 113.844 7.76478 113.533 7.82216C111.945 8.11546 110.358 8.07721 108.968 8.05489C108.704 8.0517 108.494 7.8126 108.494 7.52567C108.494 6.52462 108.494 4.35037 108.494 3.59479C108.494 3.45133 108.602 3.33337 108.739 3.33337H119.324C119.458 3.33337 119.565 3.45133 119.565 3.59798V6.40985C119.565 13.0825 117.048 14.4788 108.727 14.0325C108.599 14.0261 108.494 13.9082 108.494 13.7647ZM108.494 19.7391V15.2376C108.494 15.0909 108.602 14.973 108.736 14.973H126.104C126.237 14.973 126.345 15.0909 126.345 15.2376V22.6243C126.345 22.771 126.237 22.8889 126.104 22.8889H121.69C121.557 22.8889 121.449 22.771 121.449 22.6243V20.2715C121.449 20.1249 121.342 20.0069 121.208 20.0069H108.739C108.605 20.0069 108.497 19.889 108.497 19.7423L108.494 19.7391ZM126.107 13.9719H121.984C121.85 13.9719 121.743 13.854 121.743 13.7073V3.59798C121.74 3.45133 121.847 3.33337 121.981 3.33337H126.104C126.237 3.33337 126.345 3.45133 126.345 3.59798V5.64153C126.345 5.78818 126.453 5.90614 126.586 5.90614H127.781C127.915 5.90614 128.022 6.0241 128.022 6.17075V10.685C128.022 10.8317 127.915 10.9496 127.781 10.9496H126.586C126.453 10.9496 126.345 11.0676 126.345 11.2143V13.6978C126.345 13.8444 126.237 13.9624 126.104 13.9624L126.107 13.9719Z" fill="#3483FA"/>
<path d="M30.6783 4.13858L27.8098 1.24851C26.7356 0.16627 25.0057 0.178568 23.9436 1.27311L20.1497 5.18393C19.6187 5.72915 18.7537 5.73735 18.2186 5.19623L14.3806 1.3305C13.3064 0.248258 11.5765 0.260556 10.5144 1.35509L1.21313 10.8988C0.151022 11.9933 0.163092 13.7561 1.23727 14.8383L10.8606 24.5293C11.9348 25.6115 13.6647 25.5992 14.7268 24.5047L21.1917 17.8757L30.7024 8.0699C31.7645 6.97537 31.7524 5.21263 30.6783 4.13039V4.13858Z" fill="#AEC9FF"/>
<path d="M24.2345 10.6637L21.3367 7.71051C20.2516 6.60466 18.504 6.61722 17.431 7.73565L13.5984 11.7318C13.062 12.2889 12.1881 12.2973 11.6476 11.7444L7.77032 7.79429C6.68517 6.68844 4.93755 6.701 3.86459 7.81942L0.999305 10.8061C-0.0736534 11.9245 -0.0614607 13.7257 1.02369 14.8316L10.7453 24.734C11.8305 25.8398 13.5781 25.8273 14.6511 24.7089L24.2589 14.6891C25.3319 13.5707 25.3197 11.7695 24.2345 10.6637Z" fill="#3483FA"/>
</svg>
