<svg width="40" height="40" viewBox="0 0 40 40" fill="none" xmlns="http://www.w3.org/2000/svg">
<rect width="40" height="40" rx="8" fill="#F5E9FE"/>
<path d="M25.5415 10.957H28.7484L28.8768 10.9686C29.1687 11.0222 29.4002 11.2553 29.4404 11.5541C29.6095 12.8166 29.4621 14.7273 28.4461 16.3927C27.7759 17.4911 26.7468 18.4486 25.2547 19.0422C24.5192 21.2384 22.4453 22.8218 19.9997 22.8218H17.6247C15.1791 22.8217 13.1051 21.2384 12.3697 19.0422C10.8779 18.4486 9.84915 17.491 9.17903 16.3927C8.16299 14.7273 8.01572 12.8166 8.18479 11.5541C8.22498 11.2553 8.4564 11.0221 8.7484 10.9686L8.87674 10.957H12.0829V9.375H25.5415V10.957ZM25.5415 17.2849C25.5415 17.3137 25.5396 17.3426 25.5392 17.3714C26.3159 16.9094 26.8642 16.3167 27.2486 15.6867C27.9198 14.5865 28.1256 13.3211 28.1005 12.3304H25.5415V17.2849ZM9.52461 12.3304C9.49953 13.3211 9.70534 14.5865 10.3766 15.6867C10.7609 16.3164 11.3089 16.9087 12.0852 17.3706C12.0848 17.342 12.0829 17.3135 12.0829 17.2849V12.3304H9.52461Z" fill="#D9A9F9"/>
<path d="M16.0414 17.2849H21.5831C20.3528 21.535 20.3023 23.6666 21.5831 27.5677H16.0414C17.2442 23.7208 17.3306 21.5872 16.0414 17.2849Z" fill="#D9A9F9"/>
<path d="M12.8746 28.3587C12.8746 27.4849 13.5835 26.7767 14.458 26.7767H23.1665C24.041 26.7767 24.7499 27.4849 24.7499 28.3587V29.9406H12.8746V28.3587Z" fill="#D597FF"/>
<path d="M23.1665 26.3812C23.1665 26.1628 23.3438 25.9857 23.5623 25.9857H28.3124C28.531 25.9857 28.7083 26.1628 28.7083 26.3812V32.3538C28.7083 32.6721 28.3512 32.86 28.0885 32.68L26.1613 31.3596C26.0264 31.2671 25.8484 31.2671 25.7135 31.3596L23.7862 32.68C23.5235 32.86 23.1665 32.6721 23.1665 32.3538V26.3812Z" fill="url(#paint0_linear_1356_8581)"/>
<path d="M31.875 23.2172C31.875 26.4936 29.2166 29.1496 25.9374 29.1496C22.6582 29.1496 19.9998 26.4936 19.9998 23.2172C19.9998 19.9409 22.6582 17.2849 25.9374 17.2849C29.2166 17.2849 31.875 19.9409 31.875 23.2172Z" fill="url(#paint1_linear_1356_8581)"/>
<path d="M28.7083 23.2172C28.7083 24.7462 27.4677 25.9857 25.9374 25.9857C24.4071 25.9857 23.1665 24.7462 23.1665 23.2172C23.1665 21.6883 24.4071 20.4488 25.9374 20.4488C27.4677 20.4488 28.7083 21.6883 28.7083 23.2172Z" fill="#CB7EFF"/>
<defs>
<linearGradient id="paint0_linear_1356_8581" x1="-5.44643" y1="1.18038" x2="39.3956" y2="42.1706" gradientUnits="userSpaceOnUse">
<stop stop-color="#CB7EFF"/>
<stop offset="1" stop-color="#C672FF"/>
</linearGradient>
<linearGradient id="paint1_linear_1356_8581" x1="27.125" y1="13.4374" x2="6.73625" y2="31.7145" gradientUnits="userSpaceOnUse">
<stop stop-color="#BD69F6"/>
<stop offset="1" stop-color="#BC59FF"/>
</linearGradient>
</defs>
</svg>
