<svg width="22" height="22" viewBox="0 0 22 22" fill="none" xmlns="http://www.w3.org/2000/svg">
<path d="M11.0001 13.3333L2.83341 21.5C2.52786 21.8055 2.13897 21.9583 1.66675 21.9583C1.19453 21.9583 0.805636 21.8055 0.500081 21.5C0.194525 21.1944 0.041748 20.8055 0.041748 20.3333C0.041748 19.8611 0.194525 19.4722 0.500081 19.1667L8.66675 11L0.500081 2.83332C0.194525 2.52777 0.041748 2.13888 0.041748 1.66666C0.041748 1.19443 0.194525 0.805545 0.500081 0.499989C0.805636 0.194434 1.19453 0.0416565 1.66675 0.0416565C2.13897 0.0416565 2.52786 0.194434 2.83341 0.499989L11.0001 8.66666L19.1667 0.499989C19.4723 0.194434 19.8612 0.0416565 20.3334 0.0416565C20.8056 0.0416565 21.1945 0.194434 21.5001 0.499989C21.8056 0.805545 21.9584 1.19443 21.9584 1.66666C21.9584 2.13888 21.8056 2.52777 21.5001 2.83332L13.3334 11L21.5001 19.1667C21.8056 19.4722 21.9584 19.8611 21.9584 20.3333C21.9584 20.8055 21.8056 21.1944 21.5001 21.5C21.1945 21.8055 20.8056 21.9583 20.3334 21.9583C19.8612 21.9583 19.4723 21.8055 19.1667 21.5L11.0001 13.3333Z" fill="#4F5E6F"/>
</svg>
