<svg width="20" height="18" viewBox="0 0 20 18" fill="none" xmlns="http://www.w3.org/2000/svg">
<path d="M17 6C16.1667 6 15.4583 5.70833 14.875 5.125C14.2917 4.54167 14 3.83333 14 3C14 2.16667 14.2917 1.45833 14.875 0.875C15.4583 0.291667 16.1667 0 17 0C17.8333 0 18.5417 0.291667 19.125 0.875C19.7083 1.45833 20 2.16667 20 3C20 3.83333 19.7083 4.54167 19.125 5.125C18.5417 5.70833 17.8333 6 17 6ZM2 18C1.45 18 0.979333 17.8043 0.588 17.413C0.196667 17.0217 0.000666667 16.5507 0 16V4C0 3.45 0.196 2.97933 0.588 2.588C0.98 2.19667 1.45067 2.00067 2 2H11.1C11.3667 2 11.5877 2.1 11.763 2.3C11.9383 2.5 12.0173 2.73333 12 3C12 3.18333 12.0083 3.35433 12.025 3.513C12.0417 3.67167 12.0667 3.834 12.1 4C12.2167 4.53333 12.4083 5.02933 12.675 5.488C12.9417 5.94667 13.2667 6.35067 13.65 6.7L10 9L3.3 4.8C3.01667 4.61667 2.729 4.60833 2.437 4.775C2.145 4.94167 1.99933 5.19167 2 5.525C2 5.675 2.03333 5.81267 2.1 5.938C2.16667 6.06333 2.26667 6.16733 2.4 6.25L9.475 10.675C9.64167 10.775 9.81667 10.825 10 10.825C10.1833 10.825 10.3583 10.775 10.525 10.675L15.275 7.7C15.5583 7.8 15.8417 7.875 16.125 7.925C16.4083 7.975 16.7 8 17 8C17.3 8 17.6 7.975 17.9 7.925C18.2 7.875 18.4917 7.79167 18.775 7.675C19.0583 7.55833 19.3333 7.575 19.6 7.725C19.8667 7.875 20 8.09167 20 8.375V16C20 16.55 19.804 17.021 19.412 17.413C19.02 17.805 18.5493 18.0007 18 18H2Z" fill="white"/>
</svg>
