<svg width="32" height="32" viewBox="0 0 32 32" fill="none" xmlns="http://www.w3.org/2000/svg">
<path d="M28.2085 4.80764C27.1021 3.72057 25.3202 3.73292 24.2262 4.83235L20.3185 8.76063C19.7715 9.30828 18.8806 9.31652 18.3295 8.77298L14.3762 4.89C13.2698 3.80292 11.4879 3.81528 10.3939 4.9147L0.813489 14.501C-0.280496 15.6004 -0.1062 16.9129 1.00022 18L11 28C12.1064 29.0871 13.6388 29.2671 14.7328 28.1677L21.3918 21.509L31.1879 11.6595C32.2819 10.5601 32.2695 8.78945 31.1631 7.70238L28.2085 4.80764Z" fill="#AEC9FF"/>
<path d="M24.7538 14.1773L21.769 11.2378C20.6513 10.137 18.8512 10.1495 17.746 11.2628L13.7984 15.2406C13.2458 15.7952 12.3458 15.8035 11.789 15.2531L7.79536 11.3212C6.67764 10.2204 4.87756 10.2329 3.77239 11.3462L0.821094 14.3191C-0.284072 15.4324 -0.271514 17.2253 0.846211 18.3261L10.8597 28.1831C11.9774 29.2839 13.7775 29.2714 14.8827 28.1581L24.7789 18.1844C25.8841 17.0711 25.8715 15.2781 24.7538 14.1773Z" fill="#3483FA"/>
</svg>
